<?xml version="1.0" encoding="UTF-8"?>
<svg width="16px" height="18px" viewBox="0 0 16 18" version="1.1" xmlns="http://www.w3.org/2000/svg" xmlns:xlink="http://www.w3.org/1999/xlink">
    <!-- Generator: Sketch 42 (36781) - http://www.bohemiancoding.com/sketch -->
    <title>icon-attachment-small copy</title>
    <desc>Created with Sketch.</desc>
    <defs></defs>
    <g id="Sprite" stroke="none" stroke-width="1" fill="none" fill-rule="evenodd">
        <g id="misc-fill" transform="translate(-61.000000, -95.000000)" fill-rule="nonzero" fill="#7F8796">
            <g id="next-to-input-field" transform="translate(50.000000, 24.000000)">
                <g id="icons" transform="translate(10.000000, 71.000000)">
                    <g id="Group-2-Copy">
                        <path d="M10.1292257,3.92288508 C10.2817406,3.76157511 10.4796806,3.58356796 10.7525116,3.40320649 C11.7113024,2.76937489 12.5967339,2.73673167 13.5313066,3.66205972 C14.348959,4.54919817 14.3820169,5.44609586 13.9363656,6.34931925 C13.85531,6.5135985 13.7772518,6.63889519 13.7239961,6.71364922 L7.48146505,12.1465921 L7.33467637,12.3053277 C7.29435992,12.3597034 7.19074492,12.4745101 7.05120891,12.588448 C6.67884375,12.8925022 6.47255606,12.9145093 6.15455212,12.5860995 C5.88404382,12.2780077 5.94776434,11.9633472 6.36700039,11.486905 C6.54059305,11.2896251 6.71669557,11.1407905 6.81253489,11.0737498 L9.49799229,8.78931052 C9.91819493,8.43091383 9.96829854,7.79973436 9.60990185,7.37953173 C9.25150516,6.95932909 8.62032569,6.90922547 8.20012306,7.26762216 L5.59040666,9.4934857 C5.45044687,9.58579508 5.15923924,9.83191173 4.86552175,10.1657079 C3.85957646,11.3089176 3.57993229,12.6898385 4.686419,13.9434697 C5.87549591,15.172988 7.22439832,15.0290849 8.31616812,14.1376021 C8.5519713,13.9450573 8.73589998,13.7531078 8.86656325,13.5924963 L15.1112128,8.15770971 L15.2243651,8.04184732 C15.3655714,7.87162704 15.5502231,7.59848439 15.7299292,7.23426528 C16.5112911,5.65064077 16.4457325,3.87196454 14.9696417,2.27311088 C13.2384842,0.557661254 11.3234449,0.628263043 9.64957943,1.73481189 C9.22290067,2.0168781 8.90663139,2.30129863 8.71465782,2.51188336 L2.50875928,8.19258926 L2.40377672,8.3047914 C2.21203886,8.54420684 1.9498451,8.94302791 1.69205861,9.47560403 C0.720505851,11.4827915 0.650969371,13.6714659 2.11018225,15.7079912 C2.20565163,15.8412314 2.30732672,15.9728078 2.41525083,16.1026657 C2.85405165,16.5853198 3.28694186,16.9517442 3.74225629,17.2380047 C5.60856422,18.4113703 7.58743613,18.1650278 9.40847371,17.0936454 C9.97189178,16.7621661 10.3945118,16.4279218 10.6471489,16.1865686 L16.3700394,10.9949503 C16.7790726,10.6238569 16.8098288,9.99143932 16.4387354,9.58240618 C16.0676419,9.17337304 15.4352244,9.14261683 15.0261913,9.51371026 L9.28445015,14.7228784 C9.11615253,14.8832005 8.81023774,15.1251442 8.39430416,15.369853 C7.15267423,16.100349 5.93203251,16.2523021 4.80676698,15.5448369 C4.50775524,15.3568454 4.2128425,15.1072135 3.92314567,14.7896034 C3.87587327,14.7310648 3.80343059,14.6373177 3.73592872,14.5431099 C2.76490722,13.1879205 2.81041239,11.7556366 3.49225998,10.3469679 C3.65597634,10.0087367 3.81629038,9.75405692 3.92356808,9.60884417 L10.1292257,3.92288508 Z" id="icon-attachment-small-copy"></path>
                    </g>
                </g>
            </g>
        </g>
    </g>
</svg>