<?xml version="1.0" encoding="UTF-8"?>
<svg width="18px" height="15px" viewBox="0 0 18 15" version="1.1" xmlns="http://www.w3.org/2000/svg" xmlns:xlink="http://www.w3.org/1999/xlink">
    <!-- Generator: Sketch 42 (36781) - http://www.bohemiancoding.com/sketch -->
    <title>Combined Shape Copy 4</title>
    <desc>Created with Sketch.</desc>
    <defs></defs>
    <g id="Sprite" stroke="none" stroke-width="1" fill="none" fill-rule="evenodd">
        <g id="misc-fill" transform="translate(-240.000000, -369.000000)" fill-rule="nonzero" fill="#7F8796">
            <g id="in-top-bar" transform="translate(232.000000, 35.000000)">
                <g id="Group-6" transform="translate(3.000000, 58.000000)">
                    <g id="top-bar/icon-direct-message-hover-copy" transform="translate(5.000000, 276.000000)">
                        <path d="M16,4.83541843 L10.3037864,9.40394973 C10.2090895,9.48421556 10.0963766,9.56346951 9.96065262,9.6370927 C9.28350644,10.0044091 8.42522779,10.0044091 7.70170178,9.42216721 C6.86423713,8.74892604 6.86423713,8.74892604 4.34997222,6.72769742 L2,4.83854438 L2,12.2089071 C2,12.6340103 2.35495471,13 2.79281354,13 L15.2071865,13 C15.6398618,13 16,12.6458157 16,12.2089071 L16,4.83541843 Z M0,2.79109287 C0,1.24839202 1.25675753,0 2.79281354,0 L15.2071865,0 C16.7492051,0 18,1.26094531 18,2.79109287 L18,12.2089071 C18,13.751608 16.7432425,15 15.2071865,15 L2.79281354,15 C1.25079493,15 0,13.7390547 0,12.2089071 L0,2.79109287 Z M8.70480358,8.17565735 C9.01251999,8.42328546 9.2779669,8.17565735 9.2779669,8.17565735 L15.9983471,2.78571429 L15.9965971,2 L1.99834705,2 L2.00009701,2.78571429 C2.00009701,2.78571429 8.70480339,8.17565735 8.70480358,8.17565735 Z" id="Combined-Shape-Copy-4"></path>
                    </g>
                </g>
            </g>
        </g>
    </g>
</svg>