<?xml version="1.0" encoding="UTF-8"?>
<svg width="20px" height="16px" viewBox="0 0 20 16" version="1.1" xmlns="http://www.w3.org/2000/svg" xmlns:xlink="http://www.w3.org/1999/xlink">
    <!-- Generator: Sketch 42 (36781) - http://www.bohemiancoding.com/sketch -->
    <title>Group 9</title>
    <desc>Created with Sketch.</desc>
    <defs></defs>
    <g id="Sprite" stroke="none" stroke-width="1" fill="none" fill-rule="evenodd">
        <g id="Artboard" transform="translate(-7.000000, -5.000000)" fill="#3F4856">
            <g id="Group-9" transform="translate(7.000000, 5.000000)">
                <g id="Group-10">
                    <path d="M3.31007842,15.7034969 C1.1481809,15.2879931 0.00335489069,13.2137197 9.27545632e-07,9.73122463 C-1.15414077e-05,9.71827784 9.61869292e-05,9.7053673 0.000320767976,9.69249505 C0.000386378748,9.67831641 0.000393358739,9.67554095 0.000469890164,9.64510976 C0.000611246511,9.56041024 0.000611246511,9.56041024 0.000683636498,9.43777698 C0.000733982124,9.14817243 0.000733982124,9.14817243 0.000607576207,8.79957963 C0.000495236069,8.56726109 0.000495236069,8.56726109 0.000360413032,8.35207734 C9.06173289e-05,7.97313038 9.06173289e-05,7.97313038 7.57113339e-07,7.86985989 C-0.00096094503,6.76461115 0.894750817,5.86811966 1.99999998,5.86811965 L4.00642536,5.86811962 C4.00986707,5.86811962 4.01330673,5.86812831 4.01674431,5.86814567 C4.01812602,5.60421724 4.01952267,5.34547316 4.02091933,5.093676 C4.02301165,4.71646278 4.02463873,4.43756068 4.02556568,4.28486 C4.03651171,2.35144579 5.61101278,0.795387562 7.54647661,0.809024204 L15.4908329,0.864997527 C17.4008134,0.878454622 18.9658697,2.418666 19.0109915,4.32377853 C19.0139371,4.43116224 19.0190468,4.62836121 19.0255989,4.89990147 C19.036499,5.35163377 19.047395,5.8466713 19.0575649,6.36958262 C19.0765763,7.34710045 19.0908144,8.30661991 19.0983203,9.20694166 C19.1021458,9.66580427 19.1041426,10.1019242 19.1041426,10.5119795 C19.1041426,11.6527825 19.0553825,12.3524111 18.9333754,12.8217544 C18.8468767,13.1545024 18.7252577,13.4453581 18.4894669,13.7214191 C17.7538172,14.9724418 16.3079659,15.8419373 14.8577031,15.8489147 L7.24248794,15.8855526 C7.16969264,15.8859028 7.09694374,15.8822783 7.02456575,15.8746989 C6.91330116,15.9522578 4.60115634,15.8855526 4.60115634,15.8855526 C3.82419195,15.7971099 3.62960851,15.8713024 3.31007842,15.7034969 Z M5.7461406,14.0851098 C5.96052814,14.0386707 6.1897029,13.9931898 6.3817459,13.964623 C6.91314992,13.8855757 7.23286577,13.8855757 7.23286577,13.8855757 L14.8480809,13.8489378 C15.6835794,13.8449181 16.5947114,13.2179737 16.8912736,12.4485793 C16.8912736,12.4485793 17.1041426,12.7474275 17.1041426,10.5119795 C17.1041426,7.7471087 17.0117435,4.37861875 17.0117435,4.37861875 C16.9919825,3.54453634 16.3042701,2.87077838 15.4767419,2.86494789 L7.53238562,2.80897456 C6.70195813,2.80312365 6.03021678,3.46898989 6.02553363,4.29618282 L6.02553363,11.9665828 C6.02553363,12.6642809 5.95801089,13.1534728 5.85821774,13.495473 C5.82829665,13.6913159 5.79228884,13.8905388 5.7461406,14.0851098 Z M3.9958073,13.3192357 C3.98518921,13.3192357 4.00642538,8 4.00642538,8 L2,8.00000002 C2,8.00000002 2.00161994,9.86173941 2,9.86117882 C2.00305064,13.028723 2.7981957,13.7650802 3.59750497,13.8855757 C3.99546184,13.9455676 4.00642538,13.3192357 3.9958073,13.3192357 Z M8.02143999,10.8256392 L9.02143999,10.8256392 L9.02143999,11.8256392 L8.02143999,11.8256392 L8.02143999,10.8256392 Z M10.02144,7.8256392 L15.02144,7.8256392 L15.02144,8.8256392 L10.02144,8.8256392 L10.02144,7.8256392 Z M10.02144,4.8256392 L15.02144,4.8256392 L15.02144,5.8256392 L10.02144,5.8256392 L10.02144,4.8256392 Z M8.02143999,7.8256392 L9.02143999,7.8256392 L9.02143999,8.8256392 L8.02143999,8.8256392 L8.02143999,7.8256392 Z M8.02143999,4.8256392 L9.02143999,4.8256392 L9.02143999,5.8256392 L8.02143999,5.8256392 L8.02143999,4.8256392 Z M10.02144,10.8256392 L15.02144,10.8256392 L15.02144,11.8256392 L10.02144,11.8256392 L10.02144,10.8256392 Z" id="Combined-Shape"></path>
                </g>
            </g>
        </g>
    </g>
</svg>