<?xml version="1.0" encoding="UTF-8"?>
<svg width="16px" height="17px" viewBox="0 0 16 17" version="1.1" xmlns="http://www.w3.org/2000/svg" xmlns:xlink="http://www.w3.org/1999/xlink">
    <!-- Generator: Sketch 42 (36781) - http://www.bohemiancoding.com/sketch -->
    <title>icon copy</title>
    <desc>Created with Sketch.</desc>
    <defs></defs>
    <g id="Sprite" stroke="none" stroke-width="1" fill="none" fill-rule="evenodd">
        <g id="misc-fill" transform="translate(-241.000000, -128.000000)" fill="#7F8796">
            <g id="in-top-bar" transform="translate(232.000000, 35.000000)">
                <g id="Group-6" transform="translate(3.000000, 58.000000)">
                    <g id="top-bar/icon-filter-hover-copy" transform="translate(6.000000, 35.000000)">
                        <path d="M14,0 L2,0 C0.896,0 0,0.7633 0,1.7 L0,4.25 C0,4.4676 0.098,4.6852 0.293,4.85095 L5,8.85275 L5,16.15 C5,16.4934 5.244,16.80365 5.617,16.9354 C5.741,16.9796 5.871,17 6,17 C6.26,17 6.516,16.9133 6.707,16.75095 L10.707,13.35095 C10.895,13.192 11,12.9761 11,12.75 L11,8.8519 L15.707,4.85095 C15.902,4.6852 16,4.46845 16,4.25 L16,1.7 C16,0.7633 15.104,0 14,0 L14,0 Z M9.293,8 C9.105,8.15466886 9,8.36363636 9,8.58165364 L9,12.3545866 L7,14 L7,8.58165364 C7,8.36363636 6.895,8.15384615 6.707,8 L2,4.12751954 L2,2 L14,2 L14,4.12751954 L9.293,8 L9.293,8 Z" id="icon-copy"></path>
                    </g>
                </g>
            </g>
        </g>
    </g>
</svg>