<?xml version="1.0" encoding="UTF-8"?>
<svg width="17px" height="21px" viewBox="0 0 17 21" version="1.1" xmlns="http://www.w3.org/2000/svg" xmlns:xlink="http://www.w3.org/1999/xlink">
    <!-- Generator: Sketch 42 (36781) - http://www.bohemiancoding.com/sketch -->
    <title>Combined Shape</title>
    <desc>Created with Sketch.</desc>
    <defs></defs>
    <g id="Sprite" stroke="none" stroke-width="1" fill="none" fill-rule="evenodd">
        <g id="misc-fill" transform="translate(-239.000000, -320.000000)" fill-rule="nonzero" fill="#7F8796">
            <g id="in-top-bar" transform="translate(232.000000, 35.000000)">
                <g id="Group-6" transform="translate(3.000000, 58.000000)">
                    <g id="top-bar/icon-following-hover-copy" transform="translate(3.000000, 227.000000)">
                        <g id="Group-4">
                            <path d="M10.5783378,10.5 L11.5857724,11.5074346 C11.8831657,11.8048279 11.8806792,12.2912508 11.585965,12.585965 C11.2884831,12.8834469 10.8026466,12.8809844 10.5074346,12.5857724 L9.5,11.5783378 L8.49256544,12.5857724 C8.19517209,12.8831657 7.70874923,12.8806792 7.414035,12.585965 C7.11655314,12.2884831 7.11901557,11.8026466 7.41422762,11.5074346 L8.42166218,10.5 L7.41422762,9.49256544 C7.11683426,9.19517209 7.11932078,8.70874923 7.414035,8.414035 C7.71151686,8.11655314 8.19735339,8.11901557 8.49256544,8.41422762 L9.5,9.42166218 L10.5074346,8.41422762 C10.8048279,8.11683426 11.2912508,8.11932078 11.585965,8.414035 C11.8834469,8.71151686 11.8809844,9.19735339 11.5857724,9.49256544 L10.5783378,10.5 Z M3.6459191,5.36951786 C4.67444832,3.53127054 6.61348309,2.66165836 9.44069865,2.66165836 C12.2679142,2.66165836 14.206949,3.53127054 15.2354782,5.36951786 C15.9427061,6.63351672 16.0643926,7.67520471 16.0684838,10.1930851 C16.1764249,10.3637794 16.3117326,10.5402007 16.567908,10.8462345 C16.6852005,10.9858756 16.7562645,11.0704717 16.8114461,11.1368061 C16.9131614,11.2590792 16.9968946,11.3621787 17.0767023,11.4644419 C17.3051122,11.7571195 17.4843763,12.0213786 17.6325346,12.3064733 C18.1780329,13.3561532 18.1737843,14.5430872 17.3059089,15.5085397 C15.93562,17.0328931 12.0694018,18 9.44069865,18 C6.81179962,18 3.08702387,17.0924622 1.71786718,15.5908331 C0.861397305,14.6514957 0.820708438,13.4873805 1.31554799,12.4313579 C1.45272728,12.1386075 1.62208305,11.8655902 1.83904871,11.5633675 C1.9151846,11.4573139 1.99528903,11.3502773 2.09218486,11.2240242 C2.14637425,11.1534167 2.21284421,11.0677207 2.32497445,10.9231998 C2.61937916,10.5424897 2.76600881,10.3213136 2.8128671,10.2257015 C2.81596735,7.68417384 2.93564514,6.63896086 3.6459191,5.36951786 Z M3.195767,14.2433124 C4.21142008,15.3572347 7.81447984,16 9.44069865,16 C11.0811031,16 14.8019114,15.3024084 15.8185304,14.1714888 C16.7027053,13.1879042 14.0685932,11.7575234 14.0685932,10.3308292 C14.0685932,7.26373048 14.0685931,4.66165836 9.44069865,4.66165836 C4.81280424,4.66165836 4.8128041,7.26373048 4.8128041,10.3308292 C4.8128041,11.7717091 2.29586713,13.2563429 3.195767,14.2433124 Z M6,17.5 L13,17.5 C13,19.4329966 11.4329966,21 9.5,21 C7.56700338,21 6,19.4329966 6,17.5 Z M8,17.5 C8,18.3284271 8.67157288,19 9.5,19 C10.3284271,19 11,18.3284271 11,17.5 L8,17.5 Z M12.0029154,2.95856556 L6.99492906,2.92697635 C6.99529751,2.77535816 7,2.62784001 7,2.5 C7,1.11928813 8.11928813,0 9.5,0 C10.8807119,0 12,1.11928813 12,2.5 C12,2.63728907 12.004499,2.79639585 12.0029154,2.95856556 Z" id="Combined-Shape"></path>
                        </g>
                    </g>
                </g>
            </g>
        </g>
    </g>
</svg>