<?xml version="1.0" encoding="UTF-8"?>
<svg width="19px" height="22px" viewBox="0 0 19 22" version="1.1" xmlns="http://www.w3.org/2000/svg" xmlns:xlink="http://www.w3.org/1999/xlink">
    <!-- Generator: Sketch 42 (36781) - http://www.bohemiancoding.com/sketch -->
    <title>Combined Shape Copy 2</title>
    <desc>Created with Sketch.</desc>
    <defs></defs>
    <g id="Sprite" stroke="none" stroke-width="1" fill="none" fill-rule="evenodd">
        <g id="misc-fill" transform="translate(-236.000000, -228.000000)" fill-rule="nonzero" fill="#7F8796">
            <g id="in-top-bar" transform="translate(232.000000, 35.000000)">
                <g id="Group-6" transform="translate(3.000000, 58.000000)">
                    <g id="Group-8" transform="translate(1.000000, 135.000000)">
                        <path d="M3.76073267,17.769903 C2.06397186,16.2158946 1,13.9821993 1,11.5 C1,6.80557963 4.80557963,3 9.5,3 C14.1944204,3 18,6.80557963 18,11.5 C18,14.3451531 16.6021256,16.8638152 14.4557114,18.4066516 L14.9480109,19.7592332 C15.1386731,20.2830733 14.8761389,20.8595404 14.3535427,21.0497498 C13.8345648,21.2386423 13.2622144,20.9751542 13.0686256,20.4432734 L12.6830579,19.3839348 C11.6999299,19.7812457 10.6255113,20 9.5,20 C8.02988925,20 6.64694711,19.6267868 5.44075166,18.9699386 L4.90055854,20.454107 C4.70696976,20.9859878 4.13461933,21.2494758 3.61564142,21.0605833 C3.0930453,20.8703739 2.83051107,20.2939068 3.0211733,19.7700667 L3.69880488,17.9082892 C3.71641999,17.8598921 3.73717111,17.8137172 3.76073267,17.769903 Z M9.5,18 C13.0898509,18 16,15.0898509 16,11.5 C16,7.91014913 13.0898509,5 9.5,5 C5.91014913,5 3,7.91014913 3,11.5 C3,15.0898509 5.91014913,18 9.5,18 Z M5.74292478,10.8507043 C5.91397379,10.6289983 6.21454583,10.6109353 6.40619051,10.8022909 L8.52028649,12.9131983 L12.3027586,8.44634866 C12.4806369,8.23628619 12.7843953,8.23144165 12.970641,8.42455684 L13.7699972,9.25339644 C13.9609802,9.45142362 13.9680975,9.77581188 13.7815796,9.98257942 C13.7815796,9.98257942 9.68859084,14.5264418 9.37997402,14.787656 C9.0713572,15.0488702 8.13845054,14.8850608 8.13845054,14.8850608 L5.15925249,12.4262059 C4.94605123,12.2502421 4.9101377,11.9301254 5.0829291,11.706161 L5.74292478,10.8507043 Z M15.6420883,0.906608237 L17.3579117,1.89723934 C18.7938189,2.72626076 19.2964904,4.55826033 18.4641016,6 L17.9641016,6.8660254 C17.3786078,7.8801304 16.0510089,8.17653092 15.089792,7.50774548 L11.7125386,5.15795543 C10.8212386,4.53781608 10.5875522,3.3197981 11.1860559,2.41382806 L11.5469577,1.867522 C12.4370186,0.520214458 14.2389093,0.096482468 15.6420883,0.906608237 Z M13.2156991,2.9699293 L12.8547974,3.51623535 L16.2320508,5.8660254 L16.7320508,5 C17.0101184,4.51837281 16.8406854,3.90801967 16.3579117,3.62929015 L14.6420883,2.63865904 C14.1519043,2.35565118 13.5206984,2.50824427 13.2156991,2.9699293 Z M7.80002679,2.43952342 C8.37601137,3.34164698 8.13967419,4.5373368 7.26378888,5.15248725 L3.91741923,7.50270455 C2.95628953,8.17772371 1.62314219,7.88316152 1.03589838,6.8660254 L0.535898385,6 C-0.296490403,4.55826033 0.206181074,2.72626076 1.6420883,1.89723934 L3.3579117,0.906608237 C4.76772584,0.0926516641 6.57659991,0.52335715 7.4513311,1.89338623 L7.80002679,2.43952342 Z M5.76562316,2.96967091 C5.47093929,2.50812858 4.84809569,2.35565118 4.3579117,2.63865904 L2.6420883,3.62929015 C2.1593146,3.90801967 1.9898816,4.51837281 2.26794919,5 L2.76794919,5.8660254 L6.11431885,3.51580811 L5.76562316,2.96967091 Z" id="Combined-Shape-Copy-2"></path>
                    </g>
                </g>
            </g>
        </g>
    </g>
</svg>