<?xml version="1.0" encoding="UTF-8"?>
<svg width="17px" height="17px" viewBox="0 0 17 17" version="1.1" xmlns="http://www.w3.org/2000/svg" xmlns:xlink="http://www.w3.org/1999/xlink">
    <!-- Generator: Sketch 42 (36781) - http://www.bohemiancoding.com/sketch -->
    <title>Combined Shape</title>
    <desc>Created with Sketch.</desc>
    <defs></defs>
    <g id="Sprite" stroke="none" stroke-width="1" fill="none" fill-rule="evenodd">
        <g id="misc-fill" transform="translate(-60.000000, -128.000000)" fill-rule="nonzero" fill="#7F8796">
            <g id="next-to-input-field" transform="translate(50.000000, 24.000000)">
                <g id="icons" transform="translate(10.000000, 71.000000)">
                    <g id="Group-Copy-2" transform="translate(0.000000, 33.000000)">
                        <path d="M8.5,17 C3.80557963,17 0,13.1944204 0,8.5 C0,3.80557963 3.80557963,0 8.5,0 C13.1944204,0 17,3.80557963 17,8.5 C17,13.1944204 13.1944204,17 8.5,17 Z M8.5,15 C12.0898509,15 15,12.0898509 15,8.5 C15,4.91014913 12.0898509,2 8.5,2 C4.91014913,2 2,4.91014913 2,8.5 C2,12.0898509 4.91014913,15 8.5,15 Z M5.5,8 C4.67157288,8 4,7.32842712 4,6.5 C4,5.67157288 4.67157288,5 5.5,5 C6.32842712,5 7,5.67157288 7,6.5 C7,7.32842712 6.32842712,8 5.5,8 Z M11.5,8 C10.6715729,8 10,7.32842712 10,6.5 C10,5.67157288 10.6715729,5 11.5,5 C12.3284271,5 13,5.67157288 13,6.5 C13,7.32842712 12.3284271,8 11.5,8 Z M11.991089,10.269865 C12.1449684,10.6294842 12.0867668,11.3519522 11.6045244,11.80419 C11.5283991,11.846321 10.6107351,12.9717887 8.58206264,13.0230088 C6.55339019,13.074229 5.40232871,11.8041899 5.40232871,11.8041899 C4.53174261,11.0295306 4.87622936,10.4106615 4.87622936,10.4106615 C4.87622936,10.4106615 5.36911806,9.64233698 6.13195797,10.269865 C6.78045473,10.6103801 7.00512768,11.0349878 8.68319999,11.0349878 C10.3612723,11.0349878 10.3443976,10.6178875 10.9321984,10.269865 C11.0548528,10.1383953 11.5556236,9.79788015 11.991089,10.269865 Z" id="Combined-Shape"></path>
                    </g>
                </g>
            </g>
        </g>
    </g>
</svg>