<?xml version="1.0" encoding="UTF-8"?>
<svg width="19px" height="19px" viewBox="0 0 19 19" version="1.1" xmlns="http://www.w3.org/2000/svg" xmlns:xlink="http://www.w3.org/1999/xlink">
    <!-- Generator: Sketch 42 (36781) - http://www.bohemiancoding.com/sketch -->
    <title>Combined Shape Copy 3</title>
    <desc>Created with Sketch.</desc>
    <defs></defs>
    <g id="Sprite" stroke="none" stroke-width="1" fill="none" fill-rule="evenodd">
        <g id="misc-fill" transform="translate(-239.000000, -404.000000)" fill-rule="nonzero" fill="#7F8796">
            <g id="in-top-bar" transform="translate(232.000000, 35.000000)">
                <g id="Group-6" transform="translate(3.000000, 58.000000)">
                    <g id="top-bar/icon-start-chat-hover-copy" transform="translate(4.000000, 311.000000)">
                        <path d="M10.4802596,16.5568539 C10.0973788,17.1811147 9.93005505,17.4425546 9.70290374,17.7467596 C9.07940057,18.5817658 8.58248081,19.0223904 7.54619408,19.0223904 C6.52521334,19.0223904 5.98599666,18.5669431 5.37285563,17.762899 C5.13635186,17.4527592 4.96606727,17.1885849 4.57883276,16.5590343 C4.39987744,16.2680959 4.27953645,16.0757771 4.18598608,15.9339814 C1.81201215,15.5452036 0,13.4860358 0,11.002848 L0,4.99715203 C0,2.23731589 2.23976538,0 4.99942248,0 L14.0005775,0 C16.7614036,0 19,2.23677412 19,4.99715203 L19,11.002848 C19,13.7622255 16.7614796,16 14.0030944,16 L10.8269655,16 C10.7400594,16.1353977 10.630756,16.3114798 10.4802596,16.5568539 Z M2,4.99715203 L2,11.002848 C2,12.6583772 3.34355969,14 5.00092456,14 C5.68713154,14 6.87760493,17.0223904 7.54619408,17.0223904 C8.15083895,17.0223904 9.39993085,14 10.0045757,14 L14.0030944,14 C15.6564365,14 17,12.6581293 17,11.002848 L17,4.99715203 C17,3.34162278 15.6571128,2 14.0005775,2 L4.99942248,2 C3.34435073,2 2,3.34187067 2,4.99715203 Z M5,6 C5,5.44771525 5.4463114,5 5.99754465,5 L13.0024554,5 C13.553384,5 14,5.44386482 14,6 C14,6.55228475 13.5536886,7 13.0024554,7 L5.99754465,7 C5.44661595,7 5,6.55613518 5,6 Z M5,10 C5,9.44771525 5.4463114,9 5.99754465,9 L13.0024554,9 C13.553384,9 14,9.44386482 14,10 C14,10.5522847 13.5536886,11 13.0024554,11 L5.99754465,11 C5.44661595,11 5,10.5561352 5,10 Z" id="Combined-Shape-Copy-3"></path>
                    </g>
                </g>
            </g>
        </g>
    </g>
</svg>