<?xml version="1.0" encoding="UTF-8"?>
<svg width="14px" height="17px" viewBox="0 0 14 17" version="1.1" xmlns="http://www.w3.org/2000/svg" xmlns:xlink="http://www.w3.org/1999/xlink">
    <!-- Generator: Sketch 42 (36781) - http://www.bohemiancoding.com/sketch -->
    <title>Shape</title>
    <desc>Created with Sketch.</desc>
    <defs></defs>
    <g id="Sprite" stroke="none" stroke-width="1" fill="none" fill-rule="evenodd">
        <g id="sidebar" transform="translate(-10.000000, -134.000000)" fill-rule="nonzero" fill="#8893A2">
            <g id="icon-clock" transform="translate(10.000000, 134.000000)">
                <path d="M12,10 C12,7.23857625 9.76142375,5 7,5 C4.23857625,5 2,7.23857625 2,10 C2,12.7614237 4.23857625,15 7,15 C9.76142375,15 12,12.7614237 12,10 Z M3.76571912,3.79036604 C4.73311675,3.28546624 5.83322127,3 7,3 C8.23849726,3 9.40187186,3.32163837 10.4111508,3.88594212 L11.5,2 L13.2320508,3 L12.0119626,5.11325471 C13.2421024,6.37471633 14,8.09884993 14,10 C14,13.8659932 10.8659932,17 7,17 C3.13400675,17 -3.57935903e-13,13.8659932 -3.57935903e-13,10 C-3.57935903e-13,8.02406182 0.818699356,6.23934113 2.13538737,4.96654861 L1,3 L2.73205081,2 L3.76571912,3.79036604 Z M6,0 L8,0 C8.55314468,0.00498203857 9,0.446983703 9,1 C9,1.54923387 8.56153155,1.99505036 8,1.99995907 L8,3 L6,3 L6,1.99996215 C5.44685532,1.99501796 5,1.5530163 5,1 C5,0.450766126 5.43846845,0.00494963737 6,4.09291415e-05 Z M6,7.99980749 L6,11.0001925 C6,11.5562834 6.44771525,12 7,12 C7.55613518,12 8,11.5523709 8,11.0001925 L8,7.99980749 C8,7.44371665 7.55228475,7 7,7 C6.44386482,7 6,7.44762906 6,7.99980749 Z" id="Shape"></path>
            </g>
        </g>
    </g>
</svg>