<?xml version="1.0" encoding="UTF-8"?>
<svg width="22px" height="16px" viewBox="0 0 22 16" version="1.1" xmlns="http://www.w3.org/2000/svg" xmlns:xlink="http://www.w3.org/1999/xlink">
    <!-- Generator: Sketch 42 (36781) - http://www.bohemiancoding.com/sketch -->
    <title>Combined Shape Copy</title>
    <desc>Created with Sketch.</desc>
    <defs></defs>
    <g id="Sprite" stroke="none" stroke-width="1" fill="none" fill-rule="evenodd">
        <g id="sidebar" transform="translate(-141.000000, -52.000000)" fill-rule="nonzero" fill="#7F8796">
            <path d="M145.965515,61.6826367 C145.146257,61.3250671 144.555543,60.469054 144.555543,59.5729992 L144.555543,57.1809498 C144.555543,56.1779676 145.304674,55.2190782 146.28277,54.9737735 L158.671105,52.1104197 C158.700866,52.1029557 158.73065,52.0969105 158.760386,52.0922415 C158.990497,52.0315917 159.236815,52 159.5,52 C162.028229,52 163,54.9153115 163,58.5 C163,62.0846885 162.028229,65 159.5,65 C159.349312,65 159.204154,64.9896436 159.0644,64.9694064 C158.995885,64.9660446 158.926682,64.955541 158.857695,64.937369 L154.95874,63.962242 L154.95874,64.7164289 C154.95874,66.6348965 153.195591,67.9045512 151.376047,67.2987853 L148.284703,66.2696094 C146.942694,65.8228252 145.965515,64.4768882 145.965515,63.0574841 L145.965515,61.6826367 Z M156.486728,62.2829508 C156.150379,61.2166975 156,59.9101408 156,58.5 C156,57.0662676 156.155452,55.7396142 156.503766,54.6637365 L146.769299,56.9136936 C146.680292,56.9360164 146.555543,57.095695 146.555543,57.1809498 L146.555543,59.5729992 C146.555543,59.6658933 146.683126,59.8297247 146.784476,59.8564215 L156.486728,62.2829508 Z M159.5,63 C160.328427,63 161,60.9852814 161,58.5 C161,56.0147186 160.328427,54 159.5,54 C158.671573,54 158,56.0147186 158,58.5 C158,60.9852814 158.671573,63 159.5,63 Z M147.965515,62.2160645 L147.965515,63.0574841 C147.965515,63.615472 148.391266,64.1971615 148.916456,64.3720087 L152.0078,65.4011845 C152.533021,65.576042 152.95874,65.2694562 152.95874,64.7164289 L152.95874,63.4596558 L147.965515,62.2160645 Z M144.589963,54.8669744 C145.694532,54.8669744 146.589963,55.7535292 146.589963,56.8728934 L146.589963,59.8610553 C146.589963,60.9688938 145.695258,61.8669744 144.589963,61.8669744 C142.721632,61.8669744 141.589963,60.1694699 141.589963,58.3669744 C141.589963,56.5644789 142.721632,54.8669744 144.589963,54.8669744 Z M144.589963,59.8669744 L144.589963,56.8669744 C144.037678,56.8669744 143.589963,57.5385473 143.589963,58.3669744 C143.589963,59.1954015 144.037678,59.8669744 144.589963,59.8669744 Z" id="Combined-Shape-Copy"></path>
        </g>
    </g>
</svg>