<?xml version="1.0" encoding="UTF-8"?>
<svg width="13px" height="10px" viewBox="0 0 13 10" version="1.1" xmlns="http://www.w3.org/2000/svg" xmlns:xlink="http://www.w3.org/1999/xlink">
    <!-- Generator: Sketch 42 (36781) - http://www.bohemiancoding.com/sketch -->
    <title>bg</title>
    <desc>Created with Sketch.</desc>
    <defs></defs>
    <g id="Sprite" stroke="none" stroke-width="1" fill="none" fill-rule="evenodd">
        <g id="sidebar" transform="translate(-10.000000, -8.000000)" fill="#F4B622">
            <g id="sidebar/icon-sidebar-video-call" transform="translate(10.000000, 8.000000)">
                <path d="M10,3.17901616 L10,1.99961498 C10,0.88743329 9.10474188,0 8.00038502,0 L1.99961498,0 C0.88743329,0 0,0.895258123 0,1.99961498 L0,8.00038502 C0,9.11256671 0.895258123,10 1.99961498,10 L8.00038502,10 C9.11256671,10 10,9.10474188 10,8.00038502 L10,7.09469625 L12.0923381,8.01296749 C12.5869956,8.23005945 13,7.96201006 13,7.40776305 L13,2.30035526 C13,2.02355779 12.7945655,1.89788933 12.5411491,2.01406427 L10,3.17901616 Z M2.30395508,2.47802732 C2.30395508,2.47802732 1.51917862,3.07875255 2.30395507,4.52130118 C3.08873151,5.96384981 5.05505362,7.27539057 5.05505362,7.27539057 C5.05505362,7.27539057 6.29907218,8.41009516 7.23284927,7.89770503 C7.49536063,7.71370961 8.06787124,7.37322993 7.99829117,6.6657104 C7.87432876,6.45812983 7.35379663,5.60309524 6.5183107,5.31732173 C5.91435778,5.14741535 5.79956046,5.71448702 5.79956046,6.39746089 C4.0427182,5.10979933 3.38464359,4.20996089 3.38464359,4.20996089 C3.38464359,4.20996089 4.67984746,4.29076114 4.69189444,3.53674311 C4.74517922,2.946286 3.97136344,2.3317434 3.70379642,2.11419679 C3.01515415,1.65688928 2.30395508,2.47802732 2.30395508,2.47802732 Z" id="bg"></path>
            </g>
        </g>
    </g>
</svg>