<?xml version="1.0" encoding="UTF-8"?>
<svg width="17px" height="21px" viewBox="0 0 17 21" version="1.1" xmlns="http://www.w3.org/2000/svg" xmlns:xlink="http://www.w3.org/1999/xlink">
    <!-- Generator: Sketch 42 (36781) - http://www.bohemiancoding.com/sketch -->
    <title>Shape</title>
    <desc>Created with Sketch.</desc>
    <defs></defs>
    <g id="Sprite" stroke="none" stroke-width="1" fill="none" fill-rule="evenodd">
        <g id="sidebar" transform="translate(-65.000000, -48.000000)" fill-rule="nonzero" fill="#FFFFFF">
            <g id="sidebar/icon-sidebar-notification-center" transform="translate(65.000000, 48.000000)">
                <path d="M6.05039362,3.19697483 C3.01990982,3.79801409 2.27183465,5.82716602 2.27183465,10 C2.27183465,10.0292713 2.26666646,10.0658144 2.25454211,10.1109629 C2.18487175,10.3704003 1.9697114,10.6970749 1.48644656,11.2900508 C0.820804602,12.1068072 0.693828117,12.274634 0.494399213,12.6784646 C0.120987094,13.4345998 0.149618395,14.211855 0.747141212,14.8336772 L0.747141209,14.8336772 C1.97212612,16.1084785 5.82837491,17 8.4337746,17 C11.0376076,17 15.0455677,16.0487082 16.2735378,14.7525336 C16.8742335,14.1184737 16.8771974,13.332803 16.4685378,12.586651 C16.2540853,12.1950923 16.1307666,12.0451564 15.422753,11.2425995 C14.8337447,10.5749392 14.6023907,10.2143618 14.595804,10.0055443 C14.5957284,10.0026627 14.5957284,10.0026627 14.5957145,10 C14.5957145,5.89029753 13.8701037,3.85990353 10.9531397,3.22523763 C10.727638,1.38688613 9.71504545,0 8.5,0 C7.29118913,0 6.28275885,1.37269 6.05039362,3.19697483 Z M6.0213904,18.8285078 C6.18223922,20.0539706 7.2306411,21 8.5,21 C9.7782825,21 10.8324904,20.0406226 10.9818701,18.8026216 C10.090449,18.9325744 9.21916388,19 8.4337746,19 C7.68132136,19 6.85942526,18.9418853 6.0213904,18.8285078 Z" id="Shape"></path>
            </g>
        </g>
    </g>
</svg>