<?xml version="1.0" encoding="UTF-8"?>
<svg width="9px" height="11px" viewBox="0 0 9 11" version="1.1" xmlns="http://www.w3.org/2000/svg" xmlns:xlink="http://www.w3.org/1999/xlink">
    <!-- Generator: Sketch 42 (36781) - http://www.bohemiancoding.com/sketch -->
    <title>phone</title>
    <desc>Created with Sketch.</desc>
    <defs></defs>
    <g id="Sprite" stroke="none" stroke-width="1" fill="none" fill-rule="evenodd">
        <g id="sidebar" transform="translate(-10.000000, -26.000000)" fill="#F4B622">
            <g id="sidebar/icon-sidebar-call-active" transform="translate(10.000000, 26.000000)">
                <path d="M0.992526619,1.1958382 C0.0138813435,1.9562355 0.167549081,3.89895395 1.13079075,5.8009686 C1.12232299,5.78560147 2.58416649,7.9860047 3.14239547,8.66154798 C3.14239547,8.66154798 5.44215994,11.4904471 7.18455431,10.9382232 C7.83560718,10.6578292 9.37996955,10.1764266 8.88519316,8.72845472 C8.53790218,7.73086405 7.17919055,6.43186892 6.72753887,6.11517347 C5.46421275,6.10691068 5.51415997,6.75616468 5.26727276,7.55126966 C3.7317553,6.675079 3.31060796,4.80090345 3.31060796,4.80090345 C3.31060796,4.80090345 4.97226165,4.21492675 4.98455792,3.45703115 C5.0389453,2.86353758 3.76917858,1.09838423 3.21896415,0.409110007 C2.07400829,-0.33055168 1.02751744,1.17564641 0.992526619,1.1958382 Z" id="phone"></path>
            </g>
        </g>
    </g>
</svg>