<?xml version="1.0" encoding="UTF-8"?>
<svg width="15px" height="15px" viewBox="0 0 15 15" version="1.1" xmlns="http://www.w3.org/2000/svg" xmlns:xlink="http://www.w3.org/1999/xlink">
    <!-- Generator: Sketch 42 (36781) - http://www.bohemiancoding.com/sketch -->
    <title>Combined Shape</title>
    <desc>Created with Sketch.</desc>
    <defs></defs>
    <g id="Sprite" stroke="none" stroke-width="1" fill="none" fill-rule="evenodd">
        <g id="activity" transform="translate(-479.000000, -89.000000)" fill="#BFC5CF">
            <g id="anywhere-works" transform="translate(475.000000, 18.000000)">
                <g id="activity/aw/icon-activity-aw-selfie" transform="translate(4.000000, 71.000000)">
                    <path d="M0,4.00276013 C0,2.89666625 0.893091686,2 2.00742052,2 C2.00742052,2 1.67136588,2 3.54785611,2 C3.86869142,2 4.59378719,0 5.36426236,0 C6.3087259,0 8.76141881,1.15663425e-16 9.70588235,0 C10.5031855,-1.15663421e-16 11.1749289,2 11.5254576,2 L13.0074077,2 C14.107886,2 15,2.89354265 15,4.00276013 L15,12.9972399 C15,14.1033337 14.1066027,15 13.0081158,15 L1.99188419,15 C0.891796927,15 0,14.1064574 0,12.9972399 L0,4.00276013 Z M2,4.99754465 L2,12.0024554 C2,12.5536886 2.44573523,13 2.9955775,13 L12.0044225,13 C12.555163,13 13,12.553384 13,12.0024554 L13,4.99754465 C13,4.4463114 12.5496886,4 11.9942012,4 L10.1697798,4 C9.87475375,4 9.13835144,2 8.42342626,2 L6.48884964,2 C5.78348325,2 5.27454332,4 4.96814904,4 L2.99673257,4 C2.4517978,4 2,4.44661595 2,4.99754465 Z M7.5,12 C5.56700338,12 4,10.4329966 4,8.5 C4,6.56700338 5.56700338,5 7.5,5 C9.43299662,5 11,6.56700338 11,8.5 C11,10.4329966 9.43299662,12 7.5,12 Z M7.5,10 C8.32842712,10 9,9.32842712 9,8.5 C9,7.67157288 8.32842712,7 7.5,7 C6.67157288,7 6,7.67157288 6,8.5 C6,9.32842712 6.67157288,10 7.5,10 Z" id="Combined-Shape"></path>
                </g>
            </g>
        </g>
    </g>
</svg>