<?xml version="1.0" encoding="UTF-8"?>
<svg width="17px" height="13px" viewBox="0 0 17 13" version="1.1" xmlns="http://www.w3.org/2000/svg" xmlns:xlink="http://www.w3.org/1999/xlink">
    <!-- Generator: Sketch 42 (36781) - http://www.bohemiancoding.com/sketch -->
    <title>Combined Shape</title>
    <desc>Created with Sketch.</desc>
    <defs></defs>
    <g id="Sprite" stroke="none" stroke-width="1" fill="none" fill-rule="evenodd">
        <g id="activity-Fill" transform="translate(-365.000000, -211.000000)" fill-rule="nonzero" fill="#BFC5CF">
            <g id="anywhere-works-copy" transform="translate(362.000000, 19.000000)">
                <g id="activity/aw/icon-activity-aw-video-call-with" transform="translate(3.000000, 192.000000)">
                    <path d="M2,2.99754465 L2,10.0024554 C2,10.5536886 2.44661595,11 2.99754465,11 L10.0024554,11 C10.5536886,11 11,10.553384 11,10.0024554 L11,2.99754465 C11,2.4463114 10.553384,2 10.0024554,2 L2.99754465,2 C2.4463114,2 2,2.44661595 2,2.99754465 Z M0,2.99754465 C0,1.34203566 1.34175265,0 2.99754465,0 L10.0024554,0 C11.6579643,0 13,1.34175265 13,2.99754465 L13,10.0024554 C13,11.6579643 11.6582474,13 10.0024554,13 L2.99754465,13 C1.34203566,13 0,11.6582474 0,10.0024554 L0,2.99754465 Z M15,4 L13,5.12443912 L13,7.99497819 L15,9 L15,4 Z M17,4 L17,9 C17,10.4885182 15.4320175,11.4554118 14.1019849,10.7870559 L12.1019849,9.78203412 C11.4263897,9.44254016 11,8.75107675 11,7.99497819 L11,5.12443912 C11,4.40174003 11.3898866,3.73525632 12.0198489,3.38107918 L14.0198489,2.25664006 C15.3530522,1.50708709 17,2.47053582 17,4 Z M3.13067902,4.08955173 C3.13067902,4.08955173 3.60963272,2.81900727 4.98195316,3.10709666 C5.45654848,3.4929686 6.03066966,3.70894516 6.33978956,4.76656012 C6.3184213,6.1039949 5.11631649,5.79731326 5.11631649,5.79731326 C5.11631649,5.79731326 5.542694,6.6303279 7.27798765,7.84174852 C7.27798765,6.6303279 7.97094709,6.53743473 8.6720702,6.6887198 C9.48614013,7.13967817 9.80172964,7.34806597 9.97442072,8.27130585 C9.9620568,9.73612467 9.27088562,9.70253701 9.27088562,9.70253701 C8.20637523,10.4368966 6.58685479,9.45099321 6.58685479,9.45099321 C6.58685479,9.45099321 5.0491654,8.67333097 3.77622542,6.86080872 C2.50328545,5.04828648 3.13067902,4.08955173 3.13067902,4.08955173 Z" id="Combined-Shape"></path>
                </g>
            </g>
        </g>
    </g>
</svg>