<?xml version="1.0" encoding="UTF-8"?>
<svg width="16px" height="15px" viewBox="0 0 16 15" version="1.1" xmlns="http://www.w3.org/2000/svg" xmlns:xlink="http://www.w3.org/1999/xlink">
    <!-- Generator: Sketch 42 (36781) - http://www.bohemiancoding.com/sketch -->
    <title>Combined Shape</title>
    <desc>Created with Sketch.</desc>
    <defs></defs>
    <g id="Sprite" stroke="none" stroke-width="1" fill="none" fill-rule="evenodd">
        <g id="activity-Fill" transform="translate(-365.000000, -120.000000)" fill-rule="nonzero" fill="#BFC5CF">
            <g id="anywhere-works-copy" transform="translate(362.000000, 19.000000)">
                <g id="activity/aw/icon-activity-aw-chatted-with" transform="translate(2.000000, 101.000000)">
                    <path d="M1.98839025,7.84467561 C1.98745661,6.92003841 1.98861597,5.92974166 1.99111997,4.95618696 C1.99226209,4.51212996 1.99340476,4.17369472 1.99416065,3.98510425 C2.00062408,1.78459138 3.79653903,-2.13162821e-14 5.99201703,-6.66133815e-14 L13.007983,-2.11386464e-13 C15.2177541,-2.57127653e-13 17.0000001,1.79085165 17,4.0074206 L16.9999999,8.93752579 C16.9999998,11.1440949 15.2231342,12.9427037 13.012504,12.9660244 L8.47237166,13.0139199 C8.18770809,13.2378004 7.84987092,13.4779201 7.46358198,13.7171691 C6.02287233,14.6094762 4.47518041,15.1183574 2.84785684,14.9942045 C1.29623273,14.875827 0.468256925,13.1087545 1.3702619,11.8407096 C1.77882488,11.266349 1.88285471,11.0618533 1.90221848,10.9576573 C1.91129707,10.9088057 1.91795919,10.8297286 1.92801074,10.6146038 C1.94893948,10.1666838 1.96138011,9.96020133 1.99391879,9.65650276 C1.99086565,9.12994258 1.98907294,8.52078763 1.98839025,7.84467561 Z M3.99458726,9.76095772 C3.81812181,11.3062098 4.15103727,11.3818637 3.00000001,12.9999998 C5.51296758,13.1917208 7.71989055,11.0217468 7.71989055,11.0217468 L12.9914065,10.9661357 C14.1073155,10.9543635 14.9999998,10.0461935 14.9999999,8.93752574 L15,4.00742055 C15,2.89037778 14.1081437,2 13.007983,2 L5.99201703,2 C4.90017617,2 3.99738177,2.89139152 3.99415202,3.99097869 C3.99415202,3.99097869 3.98019231,7.47908587 3.99458726,9.76095772 Z M6,5 C6,4.44771525 6.43788135,4 7.00292933,4 L11.9970707,4 C12.5509732,4 13,4.44386482 13,5 C13,5.55228475 12.5621186,6 11.9970707,6 L7.00292933,6 C6.44902676,6 6,5.55613518 6,5 Z M6,8 C6,7.44771525 6.44371665,7 6.99980749,7 L10.0001925,7 C10.5523709,7 11,7.44386482 11,8 C11,8.55228475 10.5562834,9 10.0001925,9 L6.99980749,9 C6.44762906,9 6,8.55613518 6,8 Z" id="Combined-Shape"></path>
                </g>
            </g>
        </g>
    </g>
</svg>