<?xml version="1.0" encoding="UTF-8"?>
<svg width="16px" height="15px" viewBox="0 0 16 15" version="1.1" xmlns="http://www.w3.org/2000/svg" xmlns:xlink="http://www.w3.org/1999/xlink">
    <!-- Generator: Sketch 42 (36781) - http://www.bohemiancoding.com/sketch -->
    <title>Combined Shape</title>
    <desc>Created with Sketch.</desc>
    <defs></defs>
    <g id="Sprite" stroke="none" stroke-width="1" fill="none" fill-rule="evenodd">
        <g id="activity-Fill" transform="translate(-365.000000, -60.000000)" fill="#BFC5CF">
            <g id="anywhere-works-copy" transform="translate(362.000000, 19.000000)">
                <g id="activity/aw/icon-activity-aw-image" transform="translate(3.000000, 41.000000)">
                    <path d="M14,8.260789 L14,2.9955775 C14,2.44483697 13.5542648,2 13.0044225,2 L6.82929429,2 C6.93984578,2.31277893 7,2.64936458 7,3 C7,4.65685425 5.65685425,6 4,6 C3.64936458,6 3.31277893,5.93984578 3,5.82929429 L3,8.5279106 L3.05592615,8.47150721 C3.80189652,7.71917122 5.0051389,7.67910061 5.79950984,8.38013987 L6.64237178,9.12397286 L8.74467864,5.883274 C9.48874487,4.73629842 11.1386086,4.65734179 11.988804,5.72802166 L14,8.260789 Z M1.00129137,13.0804159 L0.980643838,13.0706225 L0.980643838,10.5644986 L1,10.5449773 L1,1.99188419 C1,0.891796927 1.89339733,0 2.99188419,0 L14.0081158,0 C15.1082031,0 16,0.893397331 16,1.99188419 L16,13.0081158 C16,14.1082031 15.1066027,15 14.0081158,15 L2.99188419,15 C1.91603421,15 1.03939751,14.1455359 1.00129137,13.0804159 Z M4,4 C4.55228475,4 5,3.55228475 5,3 C5,2.44771525 4.55228475,2 4,2 C3.44771525,2 3,2.44771525 3,3 C3,3.55228475 3.44771525,4 4,4 Z M13.0258179,13.0055542 C14.1176117,12.9142708 14.1938463,11.7551272 13.77985,11.199707 L10.4225464,6.97174072 L7.0579834,12.1582031 L4.47613525,9.87969971 L2.99400104,11.8262887 C2.93758221,12.9605585 3.95942176,13.0525717 4.02008057,13.0055542 L13.0258179,13.0055542 Z" id="Combined-Shape"></path>
                </g>
            </g>
        </g>
    </g>
</svg>