<?xml version="1.0" encoding="UTF-8"?>
<svg width="18px" height="18px" viewBox="0 0 18 18" version="1.1" xmlns="http://www.w3.org/2000/svg" xmlns:xlink="http://www.w3.org/1999/xlink">
    <!-- Generator: Sketch 42 (36781) - http://www.bohemiancoding.com/sketch -->
    <title>Combined Shape</title>
    <desc>Created with Sketch.</desc>
    <defs></defs>
    <g id="Sprite" stroke="none" stroke-width="1" fill="none" fill-rule="evenodd">
        <g id="activity-Fill" transform="translate(-364.000000, -148.000000)" fill-rule="nonzero" fill="#BFC5CF">
            <g id="anywhere-works-copy" transform="translate(362.000000, 19.000000)">
                <g id="activity/aw/icon-activity-aw-with" transform="translate(2.000000, 129.000000)">
                    <path d="M9,16 C12.8659932,16 16,12.8659932 16,9 C16,5.13400675 12.8659932,2 9,2 C5.13400675,2 2,5.13400675 2,9 C2,12.8659932 5.13400675,16 9,16 Z M9,18 C4.02943725,18 0,13.9705627 0,9 C0,4.02943725 4.02943725,0 9,0 C13.9705627,0 18,4.02943725 18,9 C18,13.9705627 13.9705627,18 9,18 Z M5.36217356,5.57847009 C5.19644804,5.68036008 4.63747586,6.75563155 5.36217356,8.38979325 C5.43567445,8.70161025 6.28433208,9.91451578 7.05234169,10.7486487 C7.84865125,11.6135182 9.00672526,12.2130393 9.00672526,12.2130393 C9.00672526,12.2130393 10.870664,13.4182025 11.9250812,12.8457417 C12.52243,12.4203069 13.2085264,12.2130393 12.940081,10.7486487 C12.7115584,10.1410607 12.0808077,9.54419625 10.9530008,9.45229039 C10.0820064,9.53774367 10.1045678,9.90059016 10.1045678,10.6636332 C8.12074877,9.22501125 7.3398236,7.68201402 7.3398236,7.68201402 C7.3398236,7.68201402 8.68907137,7.93053042 8.70267477,7.08811426 C8.76284372,6.42843427 8.04004496,5.40681139 7.73790939,5.16376046 C7.0757844,4.86580782 5.96265523,4.95758294 5.36217356,5.57847009 Z" id="Combined-Shape"></path>
                </g>
            </g>
        </g>
    </g>
</svg>