<?xml version="1.0" encoding="UTF-8"?>
<svg width="17px" height="17px" viewBox="0 0 17 17" version="1.1" xmlns="http://www.w3.org/2000/svg" xmlns:xlink="http://www.w3.org/1999/xlink">
    <!-- Generator: Sketch 42 (36781) - http://www.bohemiancoding.com/sketch -->
    <title>Calendar</title>
    <desc>Created with Sketch.</desc>
    <defs></defs>
    <g id="Sprite" stroke="none" stroke-width="1" fill="none" fill-rule="evenodd">
        <g id="Artboard" transform="translate(-80.000000, -7.000000)" fill="#5B636F">
            <g id="Group-9" transform="translate(60.000000, 7.000000)">
                <path d="M30.051138,2 C30.2855173,0.85984644 31.2973626,0 32.5,0 C33.7101154,0 34.7182119,0.851745056 34.949908,2 L34.9998938,2 C36.104522,2 37,2.89339733 37,3.99188419 L37,15.0081158 C37,16.1082031 36.1099416,17 34.9998938,17 L22.0001062,17 C20.895478,17 20,16.1066027 20,15.0081158 L20,3.99188419 C20,2.89179693 20.8900584,2 22.0001062,2 L22.051138,2 C22.2855173,0.85984644 23.2973626,0 24.5,0 C25.7101154,0 26.7182119,0.851745056 26.949908,2 L30.051138,2 Z M30.050092,4 L26.948862,4 C26.7144827,5.14015356 25.7026374,6 24.5,6 C23.4462042,6 22.5456058,5.35409452 22.1775105,4.42894563 C22.0656066,4.58977451 22,4.78504442 22,4.9955775 L22,14.0044225 C22,14.555163 22.4470447,15 22.9985023,15 L34.0014977,15 C34.5525106,15 35,14.5542648 35,14.0044225 L35,4.9955775 C35,4.78349393 34.9337065,4.58711509 34.8206858,4.42579604 C34.4503858,5.34758826 33.547575,6 32.5,6 C31.2898846,6 30.2817881,5.14825494 30.050092,4 Z M24,2.50468445 L24,3.49531555 C24,3.78596497 24.2238576,4 24.5,4 C24.7680664,4 25,3.77404508 25,3.49531555 L25,2.50468445 C25,2.21403503 24.7761424,2 24.5,2 C24.2319336,2 24,2.22595492 24,2.50468445 Z M32,2.50468445 L32,3.49531555 C32,3.78596497 32.2238576,4 32.5,4 C32.7680664,4 33,3.77404508 33,3.49531555 L33,2.50468445 C33,2.21403503 32.7761424,2 32.5,2 C32.2319336,2 32,2.22595492 32,2.50468445 Z M23,11 L26,11 L26,13 L23,13 L23,11 Z M27,8 L30,8 L30,10 L27,10 L27,8 Z M31,8 L34,8 L34,10 L31,10 L31,8 Z M23,8 L26,8 L26,10 L23,10 L23,8 Z M27,11 L30,11 L30,13 L27,13 L27,11 Z M31,11 L34,11 L34,13 L31,13 L31,11 Z" id="Calendar"></path>
            </g>
        </g>
    </g>
</svg>