<?xml version="1.0" encoding="UTF-8"?>
<svg width="15px" height="14px" viewBox="0 0 15 14" version="1.1" xmlns="http://www.w3.org/2000/svg" xmlns:xlink="http://www.w3.org/1999/xlink">
    <!-- Generator: Sketch 42 (36781) - http://www.bohemiancoding.com/sketch -->
    <title>@</title>
    <desc>Created with Sketch.</desc>
    <defs></defs>
    <g id="Sprite" stroke="none" stroke-width="1" fill="none" fill-rule="evenodd">
        <g id="activity" transform="translate(-480.000000, -330.000000)" fill="#BFC5CF">
            <g id="anywhere-works" transform="translate(475.000000, 18.000000)">
                <g id="activity/aw/icon-mentioned-person" transform="translate(5.000000, 311.000000)">
                    <path d="M3.50638308,10.9619013 C3.88751589,11.1900804 5.23535156,10.9139404 5.62237549,10.2528687 C5.9323122,10.6171879 6.2096353,11.0346056 7.86619907,11.0175523 C9.85407559,10.8460114 10.0062727,8.89659677 10.0062727,8.10495499 C10.0062727,7.28537291 9.87475586,4.37384033 7.27465801,5.110179 C7.14736561,5.17783327 6.48937148,5.27052533 6.40844708,5.45568853 C6.32783816,5.64012985 6.35674156,5.38024153 5.94036846,5.110179 C5.59432066,4.93142321 4.84790039,4.71203613 4.20996075,5.61901861 C3.60028076,6.88677979 4.28566535,8.73711004 4.28566535,8.73711004 C4.25731588,9.5625616 2.11669922,9.02893066 1.97791339,7.10228033 C1.96754221,7.08130125 1.96180598,7.06434894 1.9611893,7.05197961 C2.04804306,4.7428746 4.23981372,2.97027212 6.75656928,2.97027212 C9.27332483,2.97027212 12.0727502,5.36544368 12.04471,7.97265628 C12.086927,9.95379427 11.1081234,13.1996532 6.4742874,13.064777 C5.91482142,13.0428021 4.65362587,12.9736934 4.06451454,12.4859005 C4.06451454,12.4859005 3.14660714,11.6378773 2.44952423,12.1961666 C2.01159668,12.3583984 1.88513184,13.0462036 2.83544952,13.7687984 C3.42581359,14.2304255 4.69467961,15.0193026 6.4519043,15.0013428 C12.5236988,14.9781279 14.0968018,10.8932495 14.0322876,7.97265631 C14.09375,5.94403076 11.9341375,0.994661864 6.75656928,0.994661864 C1.57900101,0.994661864 0.0306395657,5.2128922 0.0306396484,7.07781982 C0.0306397312,8.94274745 1.13906792,11.1378605 3.50638308,10.9619013 Z M7.71154785,6.96337891 C7.4013284,6.68176825 6.90679932,6.51385498 6.43518066,6.99761963 C6.04162598,7.63909912 5.89311724,8.07569024 6.07537842,8.3067627 C6.38476563,8.95025635 6.75616455,9.26916504 7.59057617,9.0489502 C7.99828569,8.89973056 8.04559326,8.18933638 8.04559326,7.96710205 C8.04559326,7.74266035 7.85715783,7.09556056 7.71154785,6.96337891 Z" id="@" transform="translate(7.032406, 7.998153) scale(-1, 1) translate(-7.032406, -7.998153) "></path>
                </g>
            </g>
        </g>
    </g>
</svg>