<?xml version="1.0" encoding="UTF-8"?>
<svg width="17px" height="16px" viewBox="0 0 17 16" version="1.1" xmlns="http://www.w3.org/2000/svg" xmlns:xlink="http://www.w3.org/1999/xlink">
    <!-- Generator: Sketch 42 (36781) - http://www.bohemiancoding.com/sketch -->
    <title>Combined Shape</title>
    <desc>Created with Sketch.</desc>
    <defs></defs>
    <g id="Sprite" stroke="none" stroke-width="1" fill="none" fill-rule="evenodd">
        <g id="activity-Fill" transform="translate(-367.000000, -269.000000)" fill-rule="nonzero" fill="#BFC5CF">
            <g id="anywhere-works-copy" transform="translate(362.000000, 19.000000)">
                <g id="activity/aw/icon-shared-file-to-person" transform="translate(5.000000, 250.000000)">
                    <path d="M11.9744873,5.67938546 C11.9912758,5.78367883 12,5.89066987 12,5.99969856 L12,7.0200061 L10,7.0200061 L10,10.9996986 L12,11.0359891 L12,13.497196 C12,14.8791776 10.8740724,16 9.49956417,16 L2.50043583,16 C1.11819039,16 0,14.8743097 0,13.4996527 L0,2.50034732 C0,1.12944917 1.10009725,0 2.49047852,0 L6,0 C6.04265956,0 6.08500718,0.00133560662 6.12700331,0.00396728515 L7.00744629,0.00396728515 C7.00744629,0.00396728515 8.70477295,0.00396728515 9.43774607,0.577256167 L11.4323749,2.56751152 C12.1544496,3.2880029 11.9744873,5.02880859 11.9744873,5.02880859 L11.9744873,5.67938546 Z M10,13.497196 L10,5.99969856 L6,5.99969864 L6,2 L2.49047852,2 C2.21505737,2 2,2.22401312 2,2.50034732 L2,13.4996527 C2,13.7709994 2.22405275,14 2.50043583,14 L9.49956417,14 C9.76920319,14 10,13.774887 10,13.497196 Z M8.02508549,1.99302101 L8.02508545,3.98327637 L10.0197144,3.98327637 L8.02508549,1.99302101 Z M3,8 C3,7.44771525 3.45097518,7 3.99077797,7 L8.00922203,7 C8.55641359,7 9,7.44386482 9,8 C9,8.55228475 8.54902482,9 8.00922203,9 L3.99077797,9 C3.44358641,9 3,8.55613518 3,8 Z M3,11 C3,10.4477153 3.45097518,10 3.99077797,10 L8.00922203,10 C8.55641359,10 9,10.4438648 9,11 C9,11.5522847 8.54902482,12 8.00922203,12 L3.99077797,12 C3.44358641,12 3,11.5561352 3,11 Z M13.043509,9.97223585 L11.0174631,9.99336637 C11.0174631,9.99336637 10.0071422,9.95171298 10.0122298,9.01397144 C10.0175256,8.03786765 10.992625,8.02551216 10.992625,8.02551216 L13.0485033,7.98279759 C13.0485033,7.98279759 13.0022457,7.39761211 13.018463,6.7464377 C13.0736181,5.28999158 14.3478392,6.51012257 14.3478392,6.51012257 C14.3478392,6.51012257 16.4665486,8.34090807 16.710163,8.49820732 C17.1924333,9.17132443 16.6882739,9.55906874 16.6882739,9.55906874 C16.6882739,9.55906874 14.3465739,11.5574222 14.365544,11.563498 C13.2078942,12.6437147 13.0485722,11.3282955 13.0485722,11.3282955 L13.043509,9.97223585 Z" id="Combined-Shape"></path>
                </g>
            </g>
        </g>
    </g>
</svg>