<?xml version="1.0" encoding="UTF-8"?>
<svg width="10px" height="14px" viewBox="0 0 10 14" version="1.1" xmlns="http://www.w3.org/2000/svg" xmlns:xlink="http://www.w3.org/1999/xlink">
    <!-- Generator: Sketch 42 (36781) - http://www.bohemiancoding.com/sketch -->
    <title>Rectangle 188</title>
    <desc>Created with Sketch.</desc>
    <defs></defs>
    <g id="Sprite" stroke="none" stroke-width="1" fill="none" fill-rule="evenodd" opacity="0.8">
        <g id="misc-fill" transform="translate(-946.000000, -97.000000)" fill="#7F8796">
            <path d="M947.545023,97 L954.454977,97 C955.30827,97 956,97.7366584 956,98.6421673 L956,109.357833 C956,110.264777 955.306192,111 954.454977,111 L947.545023,111 C946.69173,111 946,110.263342 946,109.357833 L946,98.6421673 C946,97.7352233 946.693808,97 947.545023,97 Z M948,107 C948,106.995451 953.994313,106.996348 953.994313,106.996348 C953.998699,106.996348 954,99 954,99 C954,99.004549 948.005687,99.0036519 948.005687,99.0036519 C948.001301,99.0036519 948,107 948,107 Z M950,109 C950,109.556135 950.447715,110 951,110 C951.556135,110 952,109.552285 952,109 C952,108.443865 951.552285,108 951,108 C950.443865,108 950,108.447715 950,109 Z" id="Rectangle-188"></path>
        </g>
    </g>
</svg>