<?xml version="1.0" encoding="UTF-8"?>
<svg width="17px" height="13px" viewBox="0 0 17 13" version="1.1" xmlns="http://www.w3.org/2000/svg" xmlns:xlink="http://www.w3.org/1999/xlink">
    <!-- Generator: Sketch 42 (36781) - http://www.bohemiancoding.com/sketch -->
    <title>Combined Shape</title>
    <desc>Created with Sketch.</desc>
    <defs></defs>
    <g id="Sprite" stroke="none" stroke-width="1" fill="none" fill-rule="evenodd">
        <g id="misc-fill" transform="translate(-794.000000, -98.000000)" fill-rule="nonzero" fill="#7F8796">
            <g id="misc" transform="translate(782.000000, 35.000000)">
                <g id="icons" transform="translate(12.000000, 63.000000)">
                    <g id="misc/icon-view-hover-copy-2">
                        <path d="M0,6.63296996 C2.22044605e-16,3.38797833 4.51791112,4.4408921e-16 8.57976201,0 C12.6289455,-4.4408921e-16 17,3.34772718 17,6.58128484 C17,9.74893793 12.5571864,13 8.60307573,13 C4.63375618,13 0,9.78774628 0,6.63296996 Z M2,6.63296996 C2,8.38864664 5.46341655,11 8.60307573,11 C11.7427349,11 15,8.35418989 15,6.58128484 C15,4.75418989 11.8424683,2 8.57976201,2 C5.31705576,2 2,4.78864664 2,6.63296996 Z M8.5,10 C6.56700338,10 5,8.43299662 5,6.5 C5,4.56700338 6.56700338,3 8.5,3 C10.4329966,3 12,4.56700338 12,6.5 C12,8.43299662 10.4329966,10 8.5,10 Z M8.5,8 C9.32842712,8 10,7.32842712 10,6.5 C10,5.67157288 9.32842712,5 8.5,5 C7.67157288,5 7,5.67157288 7,6.5 C7,7.32842712 7.67157288,8 8.5,8 Z" id="Combined-Shape"></path>
                    </g>
                </g>
            </g>
        </g>
    </g>
</svg>