<?xml version="1.0" encoding="UTF-8"?>
<svg width="8px" height="8px" viewBox="0 0 8 8" version="1.1" xmlns="http://www.w3.org/2000/svg" xmlns:xlink="http://www.w3.org/1999/xlink">
    <!-- Generator: Sketch 42 (36781) - http://www.bohemiancoding.com/sketch -->
    <title>modal-close-x-active</title>
    <desc>Created with Sketch.</desc>
    <defs></defs>
    <g id="Sprite" stroke="none" stroke-width="1" fill="none" fill-rule="evenodd">
        <g id="Add-Feed-Icons" transform="translate(-18.000000, -187.000000)" fill="#262D36">
            <g id="Misc" transform="translate(12.000000, 98.000000)">
                <g id="icon-add-feed-close" transform="translate(3.000000, 73.000000)">
                    <path d="M8.48528137,20.0710678 L10.6098561,17.9464931 C10.9915051,17.5648441 10.997126,16.9260582 10.6066017,16.5355339 C10.2133548,16.142287 9.5843695,16.1435526 9.19564257,16.5322795 L7.07106781,18.6568542 L4.94649306,16.5322795 C4.56484407,16.1506305 3.9260582,16.1450096 3.53553391,16.5355339 C3.14228695,16.9287809 3.14355256,17.5577661 3.53227949,17.9464931 L5.65685425,20.0710678 L3.53227949,22.1956426 C3.15063051,22.5772916 3.14500961,23.2160774 3.53553391,23.6066017 C3.92878086,23.9998487 4.55776613,23.9985831 4.94649306,23.6098561 L7.07106781,21.4852814 L9.19564257,23.6098561 C9.57729155,23.9915051 10.2160774,23.997126 10.6066017,23.6066017 C10.9998487,23.2133548 10.9985831,22.5843695 10.6098561,22.1956426 L8.48528137,20.0710678 L8.48528137,20.0710678 Z" id="modal-close-x-active"></path>
                </g>
            </g>
        </g>
    </g>
</svg>