<?xml version="1.0" encoding="UTF-8"?>
<svg width="14px" height="16px" viewBox="0 0 14 16" version="1.1" xmlns="http://www.w3.org/2000/svg" xmlns:xlink="http://www.w3.org/1999/xlink">
    <!-- Generator: Sketch 42 (36781) - http://www.bohemiancoding.com/sketch -->
    <title>Page 1</title>
    <desc>Created with Sketch.</desc>
    <defs></defs>
    <g id="Sprite" stroke="none" stroke-width="1" fill="none" fill-rule="evenodd">
        <g id="Add-Feed-Icons" transform="translate(-120.000000, -98.000000)" fill="#FFFFFF">
            <g id="Misc" transform="translate(12.000000, 98.000000)">
                <g id="icon-add-feed-remove-image" transform="translate(108.000000, 0.000000)">
                    <path d="M11,14 L10,14 L10,5 L11,5 L11,14 Z M6,5 L8,5 L8,14 L6,14 L6,5 Z M3,5 L4,5 L4,14 L3,14 L3,5 Z M5,2 L9,2 L9,3 L5,3 L5,2 Z M13,3 L11,3 L11,1 C11,0.447 10.553,0 10,0 L4,0 C3.447,0 3,0.447 3,1 L3,3 L1,3 C0.447,3 0,3.447 0,4 C0,4.553 0.447,5 1,5 L1,14 L1,15 C1,15.553 1.447,16 2,16 L12,16 C12.553,16 13,15.553 13,15 L13,5 C13.553,5 14,4.553 14,4 C14,3.447 13.553,3 13,3 L13,3 Z" id="Page-1"></path>
                </g>
            </g>
        </g>
    </g>
</svg>