<?xml version="1.0" encoding="UTF-8"?>
<svg width="48px" height="45px" viewBox="0 0 48 45" version="1.1" xmlns="http://www.w3.org/2000/svg" xmlns:xlink="http://www.w3.org/1999/xlink">
    <!-- Generator: Sketch 42 (36781) - http://www.bohemiancoding.com/sketch -->
    <title>Combined Shape</title>
    <desc>Created with Sketch.</desc>
    <defs></defs>
    <g id="Sprite" stroke="none" stroke-width="1" fill="none" fill-rule="evenodd" fill-opacity="0.699999988">
        <g id="Add-Feed-Icons" transform="translate(-12.000000, -104.000000)" fill="#000000">
            <g id="Misc" transform="translate(12.000000, 98.000000)">
                <g id="icon-add-feed-selfie-cam-loading" transform="translate(0.000000, 6.000000)">
                    <path d="M3.73487796e-16,10.9948438 C1.67216182e-16,8.7885525 1.78331087,7.01081772 3.99296112,7.01981674 C3.99296112,7.01981674 6.90514215,7.05076124 9.14747715,7 C11.3898122,7.05076124 13.1999416,0 16.7204227,0 C19.5748014,0 29.2561369,-3.27713037e-16 32.1105156,0 C35.1192093,3.2771305e-16 36.8277067,7 38.5192986,7 L43.995025,7 C46.2069116,7 48,8.78185079 48,10.9948438 L48,41.0051562 C48,43.2114475 46.2059475,45 43.9901068,45 L4.00989318,45 C1.79529033,45 3.38612406e-15,43.2181492 3.17922588e-15,41.0051562 L3.73487796e-16,10.9948438 Z M4,11.9981537 L4,40.0018463 C4,40.5526348 4.45164402,41 5.00877516,41 L42.9912248,41 C43.5507812,41 44,40.5531114 44,40.0018463 L44,11.9981537 C44,11.4473652 43.548755,11 42.9921162,11 L35.4285714,11 C34.4323796,11.7272727 32.1283188,4 29.7142857,4 L18.5887893,4 C16.2070326,4 13.8708617,11 12.5714286,11 L4.99955559,11 C4.45640553,11 4,11.4468886 4,11.9981537 Z M24,37 C17.372583,37 12,31.627417 12,25 C12,18.372583 17.372583,13 24,13 C30.627417,13 36,18.372583 36,25 C36,31.627417 30.627417,37 24,37 Z M24,33 C28.418278,33 32,29.418278 32,25 C32,20.581722 28.418278,17 24,17 C19.581722,17 16,20.581722 16,25 C16,29.418278 19.581722,33 24,33 Z M7,14.4904785 C7,14.2195947 7.21505737,14 7.49047852,14 L10.5095215,14 C10.7804053,14 11,14.2150574 11,14.4904785 L11,17.5095215 C11,17.7804053 10.7849426,18 10.5095215,18 L7.49047852,18 C7.21959471,18 7,17.7849426 7,17.5095215 L7,14.4904785 Z" id="Combined-Shape"></path>
                </g>
            </g>
        </g>
    </g>
</svg>