<?xml version="1.0" encoding="UTF-8"?>
<svg width="17px" height="16px" viewBox="0 0 17 16" version="1.1" xmlns="http://www.w3.org/2000/svg" xmlns:xlink="http://www.w3.org/1999/xlink">
    <!-- Generator: Sketch 42 (36781) - http://www.bohemiancoding.com/sketch -->
    <title>Combined Shape</title>
    <desc>Created with Sketch.</desc>
    <defs></defs>
    <g id="Sprite" stroke="none" stroke-width="1" fill="none" fill-rule="evenodd">
        <g id="misc-fill" transform="translate(-600.000000, -160.000000)" fill-rule="nonzero" fill="#808897">
            <g id="reminder/icon-leave-copy-3" transform="translate(600.000000, 160.000000)">
                <path d="M13,9 L10.2502179,9 C10.1120264,9 10,8.89247131 10,8.75476074 L10,7.24523926 C10,7.10979736 10.1153984,7 10.2502179,7 L13,7 L13,5.99077797 C13,5.44358641 13.3549733,5.26622999 13.799846,5.5998845 L16.200154,7.4001155 C16.6418968,7.73142256 16.6450267,8.26622999 16.200154,8.5998845 L13.799846,10.4001155 C13.3581032,10.7314226 13,10.5490248 13,10.009222 L13,9 Z M2,2.12255173 C2.27448194,2.07692309 2.56365012,2.07745879 2.85828364,2.13146396 L6.86288607,2.86549194 C8.07914445,3.08842734 9,4.17648809 9,5.41668399 L9,13.5960092 C9,15.128811 7.6416832,16.2396868 6.14171636,15.9647487 L2.13711393,15.2307208 C0.920855553,15.0077854 0,13.9197246 0,12.6795287 L0,7.76981803 L0,1.99915795 C0,0.895053501 0.901950359,0 2.0085302,0 L9.00222961,0 C10.6578525,0 12,1.34098882 12,3.00346284 L12,6.04232978 L10,6.04232978 L10,3.00346284 C10,2.44637152 9.5540943,2 9.00222961,2 C9.00222961,2 2,2.00306798 2,1.99915795 L2,2.12255173 Z M2,4.50020353 L2,12.6795287 C2,12.9457214 2.22282734,13.2131118 2.49769878,13.2634947 L6.50230122,13.9975226 C6.78515625,14.0493689 7,13.8681418 7,13.5960092 L7,5.41668399 C7,5.15049128 6.77717266,4.88310091 6.50230122,4.83271805 L2.49769878,4.09869007 C2.21484375,4.04684385 2,4.22807091 2,4.50020353 Z M10,10 L12,10 L12,14.0001925 C12,14.5523709 11.5561352,15 11,15 C10.4477153,15 10,14.5562834 10,14.0001925 L10,10 Z M5,10 C4.44771525,10 4,9.55228475 4,9 C4,8.44771525 4.44771525,8 5,8 C5.55228475,8 6,8.44771525 6,9 C6,9.55228475 5.55228475,10 5,10 Z" id="Combined-Shape"></path>
            </g>
        </g>
    </g>
</svg>