<?xml version="1.0" encoding="UTF-8"?>
<svg width="15px" height="17px" viewBox="0 0 15 17" version="1.1" xmlns="http://www.w3.org/2000/svg" xmlns:xlink="http://www.w3.org/1999/xlink">
    <!-- Generator: Sketch 42 (36781) - http://www.bohemiancoding.com/sketch -->
    <title>Combined Shape</title>
    <desc>Created with Sketch.</desc>
    <defs></defs>
    <g id="Sprite" stroke="none" stroke-width="1" fill="none" fill-rule="evenodd">
        <g id="misc-fill" transform="translate(-601.000000, -95.000000)" fill-rule="nonzero" fill="#808897">
            <g id="reminder/icon-notifications-hover-copy-2" transform="translate(601.000000, 94.000000)">
                <path d="M2.70587873,13.8894088 C1.64646927,12.7329495 1,11.1919703 1,9.5 C1,5.91014913 3.91014913,3 7.5,3 C11.0898509,3 14,5.91014913 14,9.5 C14,11.2021204 13.3457511,12.7514328 12.2750106,13.91018 L12.9480109,15.7592332 C13.1386731,16.2830733 12.8761389,16.8595404 12.3535427,17.0497498 C11.8345648,17.2386423 11.2622144,16.9751542 11.0686256,16.4432734 L10.617861,15.2048077 C9.69224683,15.7117605 8.62978439,16 7.5,16 C6.36109562,16 5.29060447,15.7070881 4.35975025,15.1924881 L3.90055854,16.454107 C3.70696976,16.9859878 3.13461933,17.2494758 2.61564142,17.0605833 C2.0930453,16.8703739 1.83051107,16.2939068 2.0211733,15.7700667 L2.69880488,13.9082892 C2.7011094,13.9019576 2.70346759,13.895664 2.70587873,13.8894088 Z M7.5,14 C9.98528137,14 12,11.9852814 12,9.5 C12,7.01471863 9.98528137,5 7.5,5 C5.01471863,5 3,7.01471863 3,9.5 C3,11.9852814 5.01471863,14 7.5,14 Z M4.74292478,8.85070433 C4.91397379,8.6289983 5.20970069,8.60593602 5.40791356,8.80364624 L6.52028649,9.91319825 L9.3716664,7.11444505 C9.56796953,6.921765 9.88666422,6.93101171 10.0729099,7.1241269 L10.8722662,7.9529665 C11.0632492,8.15099369 11.0471143,8.46720043 10.8512086,8.6455353 C10.8512086,8.6455353 7.68859084,11.5264418 7.37997402,11.787656 C7.0713572,12.0488702 6.13845054,11.8850608 6.13845054,11.8850608 L4.17444701,10.4091181 C3.95285405,10.2425916 3.9101377,9.93012541 4.0829291,9.70616098 L4.74292478,8.85070433 Z M6.29340978,2.11444137 C7.00341337,2.96059069 6.89304544,4.22210188 6.04689611,4.93210547 L3.74876278,6.8604683 C2.90261346,7.57047189 1.64110227,7.46010396 0.931098679,6.61395463 C-0.123426716,5.35722021 0.354836876,3.18127383 1.6838914,2.06606467 C3.0679322,0.904716548 5.09258764,0.68335726 6.29340978,2.11444137 Z M4.76132089,3.40001659 C4.4063191,2.97694192 3.60850301,3.06193835 2.96946662,3.59815356 C2.33485462,4.13065625 2.25271486,5.07754781 2.46318756,5.32837941 L4.76132089,3.40001659 Z M10.2275415,3.26832722 L12.5256748,5.19669005 C12.7361475,4.94585845 12.6540078,3.99896688 12.0193958,3.46646419 C11.3803594,2.93024899 10.5825433,2.84525256 10.2275415,3.26832722 Z M8.69545261,1.982752 C9.89627475,0.551667897 11.9209302,0.773027185 13.304971,1.93437531 C14.6340255,3.04958447 15.1122891,5.22553084 14.0577637,6.48226527 C13.3477601,7.3284146 12.0862489,7.43878253 11.2400996,6.72877894 L8.94196627,4.80041611 C8.09581695,4.09041252 7.98544902,2.82890133 8.69545261,1.982752 Z" id="Combined-Shape"></path>
            </g>
        </g>
    </g>
</svg>