<?xml version="1.0" encoding="UTF-8"?>
<svg width="11px" height="18px" viewBox="0 0 11 18" version="1.1" xmlns="http://www.w3.org/2000/svg" xmlns:xlink="http://www.w3.org/1999/xlink">
    <!-- Generator: Sketch 42 (36781) - http://www.bohemiancoding.com/sketch -->
    <title>Combined Shape</title>
    <desc>Created with Sketch.</desc>
    <defs></defs>
    <g id="Sprite" stroke="none" stroke-width="1" fill="none" fill-rule="evenodd">
        <g id="misc-fill" transform="translate(-603.000000, -126.000000)" fill-rule="nonzero" fill="#808897">
            <g id="reminder/icon-text-hover-copy" transform="translate(603.000000, 126.000000)">
                <path d="M0,4.50034732 C0,3.11459549 1.13300612,2 2.50342274,2 L8.49657726,2 C9.87778694,2 11,3.12303701 11,4.50034732 L11,15.4996527 C11,16.8854045 9.86699388,18 8.49657726,18 L2.50342274,18 C1.12221306,18 0,16.876963 0,15.4996527 L0,4.50034732 Z M2,4.50034732 L2,15.4996527 C2,15.7709994 2.22539004,16 2.50342274,16 L8.49657726,16 C8.76709747,16 9,15.7759869 9,15.4996527 L9,4.50034732 C9,4.22900057 8.77460996,4 8.49657726,4 L2.50342274,4 C2.23290253,4 2,4.22401312 2,4.50034732 Z M2,7 L9,7 L9,9 L2,9 L2,7 Z M3,10.5046844 C3,10.2259549 3.21403503,10 3.50468445,10 L4.49531555,10 C4.77404508,10 5,10.214035 5,10.5046844 L5,11.4953156 C5,11.7740451 4.78596497,12 4.49531555,12 L3.50468445,12 C3.22595492,12 3,11.785965 3,11.4953156 L3,10.5046844 Z M6,10.5046844 C6,10.2259549 6.21403503,10 6.50468445,10 L7.49531555,10 C7.77404508,10 8,10.214035 8,10.5046844 L8,11.4953156 C8,11.7740451 7.78596497,12 7.49531555,12 L6.50468445,12 C6.22595492,12 6,11.785965 6,11.4953156 L6,10.5046844 Z M3,13.5046844 C3,13.2259549 3.21403503,13 3.50468445,13 L4.49531555,13 C4.77404508,13 5,13.214035 5,13.5046844 L5,14.4953156 C5,14.7740451 4.78596497,15 4.49531555,15 L3.50468445,15 C3.22595492,15 3,14.785965 3,14.4953156 L3,13.5046844 Z M6,13.5046844 C6,13.2259549 6.21403503,13 6.50468445,13 L7.49531555,13 C7.77404508,13 8,13.214035 8,13.5046844 L8,14.4953156 C8,14.7740451 7.78596497,15 7.49531555,15 L6.50468445,15 C6.22595492,15 6,14.785965 6,14.4953156 L6,13.5046844 Z M0,0.999807492 C0,0.447629061 0.443864822,0 1,0 L1,0 C1.55228475,0 2,0.443716645 2,0.999807492 L2,4.00019251 C2,4.55237094 1.55613518,5 1,5 L1,5 C0.44771525,5 0,4.55628335 0,4.00019251 L0,0.999807492 Z" id="Combined-Shape"></path>
            </g>
        </g>
    </g>
</svg>